<mxfile host="app.diagrams.net" agent="Mozilla/5.0 (X11; Linux x86_64) AppleWebKit/537.36 (KHTML, like Gecko) Chrome/128.0.0.0 Safari/537.36" version="24.8.9">
  <diagram name="Page-1" id="3XYw_itv9GH--WRUSs52">
    <mxGraphModel dx="683" dy="375" grid="1" gridSize="10" guides="1" tooltips="1" connect="1" arrows="1" fold="1" page="1" pageScale="1" pageWidth="850" pageHeight="1100" math="0" shadow="0">
      <root>
        <mxCell id="0" />
        <mxCell id="1" parent="0" />
        <mxCell id="nEYcEpauWMIDou04Moa5-14" value="" style="rounded=0;whiteSpace=wrap;html=1;fillColor=#d5e8d4;strokeColor=none;" parent="1" vertex="1">
          <mxGeometry x="395" y="280" width="10" height="40" as="geometry" />
        </mxCell>
        <mxCell id="nEYcEpauWMIDou04Moa5-8" value="" style="endArrow=classic;html=1;rounded=0;strokeWidth=2;" parent="1" edge="1">
          <mxGeometry width="50" height="50" relative="1" as="geometry">
            <mxPoint x="230" y="320" as="sourcePoint" />
            <mxPoint x="570" y="320" as="targetPoint" />
          </mxGeometry>
        </mxCell>
        <mxCell id="nEYcEpauWMIDou04Moa5-10" value="" style="endArrow=none;html=1;rounded=0;" parent="1" edge="1">
          <mxGeometry width="50" height="50" relative="1" as="geometry">
            <mxPoint x="320" y="280" as="sourcePoint" />
            <mxPoint x="620" y="280" as="targetPoint" />
          </mxGeometry>
        </mxCell>
        <mxCell id="oSIhZrSZ0v3fDUKBHqzM-1" value="" style="endArrow=none;html=1;rounded=0;strokeWidth=3;" edge="1" parent="1">
          <mxGeometry width="50" height="50" relative="1" as="geometry">
            <mxPoint x="320" y="330" as="sourcePoint" />
            <mxPoint x="320" y="310" as="targetPoint" />
          </mxGeometry>
        </mxCell>
        <mxCell id="oSIhZrSZ0v3fDUKBHqzM-2" value="" style="endArrow=none;html=1;rounded=0;strokeWidth=3;" edge="1" parent="1">
          <mxGeometry width="50" height="50" relative="1" as="geometry">
            <mxPoint x="480" y="330" as="sourcePoint" />
            <mxPoint x="480" y="310" as="targetPoint" />
          </mxGeometry>
        </mxCell>
        <mxCell id="oSIhZrSZ0v3fDUKBHqzM-3" value="" style="endArrow=none;html=1;rounded=0;strokeWidth=3;" edge="1" parent="1">
          <mxGeometry width="50" height="50" relative="1" as="geometry">
            <mxPoint x="400" y="330" as="sourcePoint" />
            <mxPoint x="400" y="310" as="targetPoint" />
          </mxGeometry>
        </mxCell>
        <mxCell id="oSIhZrSZ0v3fDUKBHqzM-4" value="Q" style="text;html=1;align=center;verticalAlign=middle;whiteSpace=wrap;rounded=0;" vertex="1" parent="1">
          <mxGeometry x="310" y="330" width="20" height="30" as="geometry" />
        </mxCell>
        <mxCell id="oSIhZrSZ0v3fDUKBHqzM-8" value="P" style="text;html=1;align=center;verticalAlign=middle;whiteSpace=wrap;rounded=0;" vertex="1" parent="1">
          <mxGeometry x="390" y="330" width="20" height="30" as="geometry" />
        </mxCell>
        <mxCell id="oSIhZrSZ0v3fDUKBHqzM-9" value="R" style="text;html=1;align=center;verticalAlign=middle;whiteSpace=wrap;rounded=0;" vertex="1" parent="1">
          <mxGeometry x="470" y="330" width="20" height="30" as="geometry" />
        </mxCell>
        <mxCell id="oSIhZrSZ0v3fDUKBHqzM-10" value="X" style="text;html=1;align=center;verticalAlign=middle;whiteSpace=wrap;rounded=0;" vertex="1" parent="1">
          <mxGeometry x="570" y="300" width="20" height="40" as="geometry" />
        </mxCell>
        <mxCell id="oSIhZrSZ0v3fDUKBHqzM-18" value="" style="endArrow=none;html=1;rounded=0;" edge="1" parent="1" target="oSIhZrSZ0v3fDUKBHqzM-15">
          <mxGeometry width="50" height="50" relative="1" as="geometry">
            <mxPoint x="320" y="320" as="sourcePoint" />
            <mxPoint x="320" y="240" as="targetPoint" />
          </mxGeometry>
        </mxCell>
        <mxCell id="oSIhZrSZ0v3fDUKBHqzM-15" value="" style="ellipse;whiteSpace=wrap;html=1;aspect=fixed;fillColor=#000000;" vertex="1" parent="1">
          <mxGeometry x="315" y="270" width="10" height="10" as="geometry" />
        </mxCell>
        <mxCell id="oSIhZrSZ0v3fDUKBHqzM-19" value="" style="rounded=0;whiteSpace=wrap;html=1;fillColor=#d5e8d4;strokeColor=none;" vertex="1" parent="1">
          <mxGeometry x="480" y="400" width="70" height="40" as="geometry" />
        </mxCell>
        <mxCell id="oSIhZrSZ0v3fDUKBHqzM-20" value="" style="endArrow=classic;html=1;rounded=0;strokeWidth=2;" edge="1" parent="1">
          <mxGeometry width="50" height="50" relative="1" as="geometry">
            <mxPoint x="230" y="440" as="sourcePoint" />
            <mxPoint x="570" y="440" as="targetPoint" />
          </mxGeometry>
        </mxCell>
        <mxCell id="oSIhZrSZ0v3fDUKBHqzM-21" value="" style="endArrow=none;html=1;rounded=0;exitX=0;exitY=0;exitDx=0;exitDy=0;" edge="1" parent="1" source="oSIhZrSZ0v3fDUKBHqzM-19">
          <mxGeometry width="50" height="50" relative="1" as="geometry">
            <mxPoint x="320" y="400" as="sourcePoint" />
            <mxPoint x="620" y="400" as="targetPoint" />
          </mxGeometry>
        </mxCell>
        <mxCell id="oSIhZrSZ0v3fDUKBHqzM-22" value="" style="endArrow=none;html=1;rounded=0;strokeWidth=3;" edge="1" parent="1">
          <mxGeometry width="50" height="50" relative="1" as="geometry">
            <mxPoint x="320" y="450" as="sourcePoint" />
            <mxPoint x="320" y="430" as="targetPoint" />
          </mxGeometry>
        </mxCell>
        <mxCell id="oSIhZrSZ0v3fDUKBHqzM-23" value="" style="endArrow=none;html=1;rounded=0;strokeWidth=3;" edge="1" parent="1">
          <mxGeometry width="50" height="50" relative="1" as="geometry">
            <mxPoint x="480" y="450" as="sourcePoint" />
            <mxPoint x="480" y="430" as="targetPoint" />
          </mxGeometry>
        </mxCell>
        <mxCell id="oSIhZrSZ0v3fDUKBHqzM-24" value="" style="endArrow=none;html=1;rounded=0;strokeWidth=3;" edge="1" parent="1">
          <mxGeometry width="50" height="50" relative="1" as="geometry">
            <mxPoint x="400" y="450" as="sourcePoint" />
            <mxPoint x="400" y="430" as="targetPoint" />
          </mxGeometry>
        </mxCell>
        <mxCell id="oSIhZrSZ0v3fDUKBHqzM-25" value="Q" style="text;html=1;align=center;verticalAlign=middle;whiteSpace=wrap;rounded=0;" vertex="1" parent="1">
          <mxGeometry x="310" y="450" width="20" height="30" as="geometry" />
        </mxCell>
        <mxCell id="oSIhZrSZ0v3fDUKBHqzM-26" value="P" style="text;html=1;align=center;verticalAlign=middle;whiteSpace=wrap;rounded=0;" vertex="1" parent="1">
          <mxGeometry x="390" y="450" width="20" height="30" as="geometry" />
        </mxCell>
        <mxCell id="oSIhZrSZ0v3fDUKBHqzM-27" value="R" style="text;html=1;align=center;verticalAlign=middle;whiteSpace=wrap;rounded=0;" vertex="1" parent="1">
          <mxGeometry x="470" y="450" width="20" height="30" as="geometry" />
        </mxCell>
        <mxCell id="oSIhZrSZ0v3fDUKBHqzM-28" value="Y" style="text;html=1;align=center;verticalAlign=middle;whiteSpace=wrap;rounded=0;" vertex="1" parent="1">
          <mxGeometry x="570" y="420" width="20" height="40" as="geometry" />
        </mxCell>
        <mxCell id="oSIhZrSZ0v3fDUKBHqzM-32" value="" style="endArrow=none;html=1;rounded=0;" edge="1" parent="1">
          <mxGeometry width="50" height="50" relative="1" as="geometry">
            <mxPoint x="480" y="440" as="sourcePoint" />
            <mxPoint x="480" y="400" as="targetPoint" />
          </mxGeometry>
        </mxCell>
        <mxCell id="oSIhZrSZ0v3fDUKBHqzM-33" value="" style="ellipse;whiteSpace=wrap;html=1;aspect=fixed;fillColor=#000000;" vertex="1" parent="1">
          <mxGeometry x="475" y="390" width="10" height="10" as="geometry" />
        </mxCell>
        <mxCell id="oSIhZrSZ0v3fDUKBHqzM-36" value="" style="ellipse;whiteSpace=wrap;html=1;aspect=fixed;fillColor=#000000;" vertex="1" parent="1">
          <mxGeometry x="395" y="270" width="10" height="10" as="geometry" />
        </mxCell>
        <mxCell id="oSIhZrSZ0v3fDUKBHqzM-38" value="" style="endArrow=none;html=1;rounded=0;" edge="1" parent="1">
          <mxGeometry width="50" height="50" relative="1" as="geometry">
            <mxPoint x="400" y="320" as="sourcePoint" />
            <mxPoint x="400" y="280" as="targetPoint" />
          </mxGeometry>
        </mxCell>
        <mxCell id="oSIhZrSZ0v3fDUKBHqzM-39" value="" style="endArrow=none;html=1;rounded=0;" edge="1" parent="1">
          <mxGeometry width="50" height="50" relative="1" as="geometry">
            <mxPoint x="400" y="270" as="sourcePoint" />
            <mxPoint x="400" y="240" as="targetPoint" />
          </mxGeometry>
        </mxCell>
      </root>
    </mxGraphModel>
  </diagram>
</mxfile>
